<svg xmlns="http://www.w3.org/2000/svg" width="1200" height="630" viewBox="0 0 1200 630" font-family="ui-sans-serif, -apple-system, 'Segoe UI', Roboto, Helvetica, Arial, sans-serif">
  <rect width="1200" height="630" fill="#0b1220"/>
  <rect x="0" y="0" width="1200" height="6" fill="#16a34a"/>
  <text x="60" y="92" font-size="26" fill="#94a3b8">www.figma.com/pricing</text>
  <text x="60" y="180" font-size="58" font-weight="800" fill="#f8fafc">90/100 AI readability</text>
  <text x="60" y="232" font-size="26" fill="#cbd5e1">4109 words in the initial HTML, no failing checks</text>
  <text x="60" y="300" font-size="20" font-weight="600" fill="#94a3b8" letter-spacing="1">SEARCH &amp; ASSISTANT BOTS · ROBOTS.TXT FOR THIS PATH</text>
  <g><rect x="60" y="330" width="262" height="44" rx="10" fill="#16a34a14" stroke="#16a34a" stroke-width="1.5"/><text x="74" y="358" font-size="19" font-weight="600" fill="#16a34a">✓ OAI-SearchBot</text></g><g><rect x="338" y="330" width="262" height="44" rx="10" fill="#16a34a14" stroke="#16a34a" stroke-width="1.5"/><text x="352" y="358" font-size="19" font-weight="600" fill="#16a34a">✓ ChatGPT-User</text></g><g><rect x="616" y="330" width="262" height="44" rx="10" fill="#16a34a14" stroke="#16a34a" stroke-width="1.5"/><text x="630" y="358" font-size="19" font-weight="600" fill="#16a34a">✓ Claude-SearchBot</text></g><g><rect x="894" y="330" width="262" height="44" rx="10" fill="#16a34a14" stroke="#16a34a" stroke-width="1.5"/><text x="908" y="358" font-size="19" font-weight="600" fill="#16a34a">✓ Claude-User</text></g><g><rect x="60" y="386" width="262" height="44" rx="10" fill="#16a34a14" stroke="#16a34a" stroke-width="1.5"/><text x="74" y="414" font-size="19" font-weight="600" fill="#16a34a">✓ PerplexityBot</text></g><g><rect x="338" y="386" width="262" height="44" rx="10" fill="#16a34a14" stroke="#16a34a" stroke-width="1.5"/><text x="352" y="414" font-size="19" font-weight="600" fill="#16a34a">✓ Perplexity-User</text></g><g><rect x="616" y="386" width="262" height="44" rx="10" fill="#16a34a14" stroke="#16a34a" stroke-width="1.5"/><text x="630" y="414" font-size="19" font-weight="600" fill="#16a34a">✓ Googlebot</text></g><g><rect x="894" y="386" width="262" height="44" rx="10" fill="#16a34a14" stroke="#16a34a" stroke-width="1.5"/><text x="908" y="414" font-size="19" font-weight="600" fill="#16a34a">✓ Bingbot</text></g><g><rect x="60" y="442" width="262" height="44" rx="10" fill="#16a34a14" stroke="#16a34a" stroke-width="1.5"/><text x="74" y="470" font-size="19" font-weight="600" fill="#16a34a">✓ Applebot</text></g><g><rect x="338" y="442" width="262" height="44" rx="10" fill="#16a34a14" stroke="#16a34a" stroke-width="1.5"/><text x="352" y="470" font-size="19" font-weight="600" fill="#16a34a">✓ Meta-ExternalFetcher</text></g><g><rect x="616" y="442" width="262" height="44" rx="10" fill="#16a34a14" stroke="#16a34a" stroke-width="1.5"/><text x="630" y="470" font-size="19" font-weight="600" fill="#16a34a">✓ Amazonbot</text></g><g><rect x="894" y="442" width="262" height="44" rx="10" fill="#16a34a14" stroke="#16a34a" stroke-width="1.5"/><text x="908" y="470" font-size="19" font-weight="600" fill="#16a34a">✓ DuckAssistBot</text></g>
  <text x="60" y="590" font-size="20" fill="#64748b">npx ai-readable www.figma.com/pricing</text>
  <text x="1140" y="590" font-size="20" fill="#64748b" text-anchor="end">github.com/Citlyze/ai-readable</text>
</svg>
